<?xml version="1.0"?>
<svg version="1.1" xmlns="http://www.w3.org/2000/svg" width="400" height="50" style=""><path fill="#308ac9" d="M16.365,45.93l2.17,0l0-14.805q0-2.94,2.24-5.18t5.18-2.24q2.87,0,5.18,2.24q2.205,2.205,2.205,5.18l0,14.805l2.24,0l0-14.805q0-3.01,2.24-5.18q2.24-2.24,5.145-2.24q2.94,0,5.18,2.24t2.24,5.18l0,14.805l2.17,0l0-14.805q0-3.99-2.8-6.79t-6.79-2.8q-2.625,0-4.935,1.435q-2.345,1.47-3.36,3.745q-1.365-2.345-3.675-3.745q-2.415-1.435-5.04-1.435q-3.955,0-6.755,2.8q-2.835,2.835-2.835,6.79l0,14.805z M60.0394,39.28q0-1.68,1.19-3.045q1.19-1.435,2.87-1.435l0.455,0l6.545,0l0-2.17l-6.545,0l-0.455,0q-1.785-0.35-2.9225-1.54t-1.1375-2.835q0-2.065,1.2075-3.2725t3.3075-1.2075l11.9,0l0-2.205l-11.9,0q-2.695,0-4.69,1.995q-1.995,1.925-1.995,4.69q0,1.75,0.665,3.185t1.96,2.065q-1.295,0.945-1.96,2.485t-0.665,3.29q0,2.73,1.995,4.655q2.03,2.03,4.69,2.03l11.9,0l0-2.31l-11.9,0q-2.1,0-3.3075-1.19t-1.2075-3.185z M80.9288,45.93l2.17,0l0-14.805q0-2.94,2.24-5.18t5.18-2.24q2.87,0,5.18,2.24q2.205,2.205,2.205,5.18l0,14.805l2.24,0l0-14.805q0-3.01,2.24-5.18q2.24-2.24,5.145-2.24q2.94,0,5.18,2.24t2.24,5.18l0,14.805l2.17,0l0-14.805q0-3.99-2.8-6.79t-6.79-2.8q-2.625,0-4.935,1.435q-2.345,1.47-3.36,3.745q-1.365-2.345-3.675-3.745q-2.415-1.435-5.04-1.435q-3.955,0-6.755,2.8q-2.835,2.835-2.835,6.79l0,14.805z M131.9882,21.5q-3.955,0-6.79,2.835q-2.87,2.87-2.87,6.825l0,5.285q0,3.885,2.87,6.755t6.79,2.87q3.955,0,6.825-2.87q2.835-2.835,2.835-6.755l0-5.285q0-3.99-2.835-6.825t-6.825-2.835z M139.4782,31.16l0,5.285q0,3.185-2.24,5.355q-2.205,2.1-5.25,2.1t-5.215-2.1q-2.24-2.17-2.24-5.355l0-5.285q0-2.94,2.24-5.25q2.24-2.24,5.215-2.24q2.94,0,5.25,2.24q2.24,2.31,2.24,5.25z M157.4626,33.715l2.625,0q2.66,0,4.41-1.75t1.75-4.41q0-2.345-1.75-4.2q-1.855-1.925-4.41-1.925l-10.955,0l-2.17,0l0,24.57l2.17,0l0-12.285l5.705,0l7.455,12.285l2.625,0z M149.1326,31.545l0-7.91l10.955,0q1.61,0,2.835,1.155q1.155,1.155,1.155,2.765q0,1.68-1.155,2.835q-1.225,1.155-2.835,1.155l-10.955,0z M189.902,21.5l-2.17,0l0,2.59q0,3.22-2.24,5.39q-2.205,2.1-5.25,2.1q-3.255,0-5.355-2.1t-2.1-5.39l0-2.59l-2.17,0l0,2.59q0,3.92,2.38,6.65q2.345,2.765,5.95,3.01l0,12.285l2.205,0l0-12.285q3.675-0.28,6.195-3.01q2.555-2.73,2.555-6.65l0-2.59z M224.4708,46l0-2.205l-6.23,0q-4.34,0-7.28-2.94t-2.94-7.28q0-3.99,2.94-6.86t7.28-2.87l6.23,0l0-2.275l-6.23,0q-5.285,0-8.855,3.5q-3.57,3.465-3.57,8.505q0,5.355,3.57,8.855q3.5,3.57,8.855,3.57l6.23,0z M238.2902,21.36q-3.92,0-6.58,2.835q-2.625,2.8-2.625,6.825l0,14.98l2.205,0l0-10.99l14.07,0l0,10.99l2.205,0l0-14.98q0-4.025-2.625-6.825q-2.73-2.835-6.65-2.835z M245.3602,32.84l-14.07,0l0-1.82q0-3.01,2.03-5.215q2.065-2.24,4.97-2.24t5.04,2.24q2.03,2.205,2.03,5.215l0,1.82z M263.5546,33.715l2.625,0q2.66,0,4.41-1.75t1.75-4.41q0-2.345-1.75-4.2q-1.855-1.925-4.41-1.925l-10.955,0l-2.17,0l0,24.57l2.17,0l0-12.285l5.705,0l7.455,12.285l2.625,0z M255.2246,31.545l0-7.91l10.955,0q1.61,0,2.835,1.155q1.155,1.155,1.155,2.765q0,1.68-1.155,2.835q-1.225,1.155-2.835,1.155l-10.955,0z M285.144,21.465l-5.355,0l-1.33,0l-0.875,0l0,24.535l0.875,0l1.33,0l5.355,0q5.11,0,8.75-3.57q3.745-3.675,3.745-8.925q0-4.97-3.745-8.54q-3.675-3.5-8.75-3.5z M285.144,43.795l-5.355,0l0-20.055l5.355,0q4.375,0,7.35,2.87q2.94,2.87,2.94,6.895q0,4.375-2.94,7.315q-2.975,2.975-7.35,2.975z"/><path fill="#" d=""/></svg>
